# MagicaVoxel @ Ephtracy

# material
mtllib FloorSwitch.mtl
usemtl palette

# normals
vn -1 0 0
vn 1 0 0
vn 0 0 1
vn 0 0 -1
vn 0 -1 0
vn 0 1 0

# texcoords
vt 0.919922 0.5
vt 0.927734 0.5
vt 0.970703 0.5
vt 0.974609 0.5
vt 0.982422 0.5
vt 0.990234 0.5

# verts
v -12.5 0 12.5
v -12.5 0 -12.5
v -12.5 1 11.5
v -12.5 1 -11.5
v -12.5 2 11.5
v -12.5 2 -11.5
v -12.5 3 12.5
v -12.5 3 -12.5
v -11.5 1 11.5
v -11.5 1 -11.5
v -11.5 2 11.5
v -11.5 2 -11.5
v -11.5 3 11.5
v -11.5 3 1.5
v -11.5 3 0.5
v -11.5 3 -0.5
v -11.5 3 -1.5
v -11.5 3 -11.5
v -11.5 4 11.5
v -11.5 4 1.5
v -11.5 4 0.5
v -11.5 4 -0.5
v -11.5 4 -1.5
v -11.5 4 -11.5
v -7.5 3 7.5
v -7.5 3 5.5
v -7.5 3 -5.5
v -7.5 3 -7.5
v -7.5 4 7.5
v -7.5 4 5.5
v -7.5 4 -5.5
v -7.5 4 -7.5
v -4.5 3 8.5
v -4.5 3 4.5
v -4.5 3 -4.5
v -4.5 3 -8.5
v -4.5 4 8.5
v -4.5 4 4.5
v -4.5 4 -4.5
v -4.5 4 -8.5
v -0.5 3 0.5
v -0.5 3 -0.5
v -0.5 4 0.5
v -0.5 4 -0.5
v 1.5 3 1.5
v 1.5 3 0.5
v 1.5 3 -0.5
v 1.5 3 -1.5
v 1.5 4 1.5
v 1.5 4 0.5
v 1.5 4 -0.5
v 1.5 4 -1.5
v 5.5 3 7.5
v 5.5 3 5.5
v 5.5 3 -5.5
v 5.5 3 -7.5
v 5.5 4 7.5
v 5.5 4 5.5
v 5.5 4 -5.5
v 5.5 4 -7.5
v 8.5 3 8.5
v 8.5 3 4.5
v 8.5 3 -4.5
v 8.5 3 -8.5
v 8.5 4 8.5
v 8.5 4 4.5
v 8.5 4 -4.5
v 8.5 4 -8.5
v 11.5 1 12.5
v 11.5 1 11.5
v 11.5 1 -11.5
v 11.5 1 -12.5
v 11.5 2 12.5
v 11.5 2 11.5
v 11.5 2 -11.5
v 11.5 2 -12.5
v -11.5 1 12.5
v -11.5 1 11.5
v -11.5 1 -11.5
v -11.5 1 -12.5
v -11.5 2 12.5
v -11.5 2 11.5
v -11.5 2 -11.5
v -11.5 2 -12.5
v -8.5 3 8.5
v -8.5 3 4.5
v -8.5 3 -4.5
v -8.5 3 -8.5
v -8.5 4 8.5
v -8.5 4 4.5
v -8.5 4 -4.5
v -8.5 4 -8.5
v -5.5 3 7.5
v -5.5 3 5.5
v -5.5 3 -5.5
v -5.5 3 -7.5
v -5.5 4 7.5
v -5.5 4 5.5
v -5.5 4 -5.5
v -5.5 4 -7.5
v -1.5 3 1.5
v -1.5 3 0.5
v -1.5 3 -0.5
v -1.5 3 -1.5
v -1.5 4 1.5
v -1.5 4 0.5
v -1.5 4 -0.5
v -1.5 4 -1.5
v 0.5 3 0.5
v 0.5 3 -0.5
v 0.5 4 0.5
v 0.5 4 -0.5
v 4.5 3 8.5
v 4.5 3 4.5
v 4.5 3 -4.5
v 4.5 3 -8.5
v 4.5 4 8.5
v 4.5 4 4.5
v 4.5 4 -4.5
v 4.5 4 -8.5
v 7.5 3 7.5
v 7.5 3 5.5
v 7.5 3 -5.5
v 7.5 3 -7.5
v 7.5 4 7.5
v 7.5 4 5.5
v 7.5 4 -5.5
v 7.5 4 -7.5
v 11.5 1 11.5
v 11.5 1 -11.5
v 11.5 2 11.5
v 11.5 2 -11.5
v 11.5 3 11.5
v 11.5 3 1.5
v 11.5 3 0.5
v 11.5 3 -0.5
v 11.5 3 -1.5
v 11.5 3 -11.5
v 11.5 4 11.5
v 11.5 4 1.5
v 11.5 4 0.5
v 11.5 4 -0.5
v 11.5 4 -1.5
v 11.5 4 -11.5
v 12.5 0 12.5
v 12.5 0 -12.5
v 12.5 1 11.5
v 12.5 1 -11.5
v 12.5 2 11.5
v 12.5 2 -11.5
v 12.5 3 12.5
v 12.5 3 -12.5
v -12.5 0 12.5
v -12.5 3 12.5
v -11.5 1 12.5
v -11.5 2 12.5
v 11.5 1 12.5
v 11.5 2 12.5
v 12.5 0 12.5
v 12.5 3 12.5
v -11.5 1 11.5
v -11.5 2 11.5
v -11.5 3 11.5
v -11.5 4 11.5
v -1.5 3 11.5
v -1.5 4 11.5
v -0.5 3 11.5
v -0.5 4 11.5
v 0.5 3 11.5
v 0.5 4 11.5
v 1.5 3 11.5
v 1.5 4 11.5
v 11.5 1 11.5
v 11.5 2 11.5
v 11.5 3 11.5
v 11.5 4 11.5
v -7.5 3 7.5
v -7.5 4 7.5
v -5.5 3 7.5
v -5.5 4 7.5
v 5.5 3 7.5
v 5.5 4 7.5
v 7.5 3 7.5
v 7.5 4 7.5
v -8.5 3 4.5
v -8.5 4 4.5
v -4.5 3 4.5
v -4.5 4 4.5
v 4.5 3 4.5
v 4.5 4 4.5
v 8.5 3 4.5
v 8.5 4 4.5
v -0.5 3 0.5
v -0.5 4 0.5
v 0.5 3 0.5
v 0.5 4 0.5
v -1.5 3 -1.5
v -1.5 4 -1.5
v -0.5 3 -1.5
v -0.5 4 -1.5
v 0.5 3 -1.5
v 0.5 4 -1.5
v 1.5 3 -1.5
v 1.5 4 -1.5
v -7.5 3 -5.5
v -7.5 4 -5.5
v -5.5 3 -5.5
v -5.5 4 -5.5
v 5.5 3 -5.5
v 5.5 4 -5.5
v 7.5 3 -5.5
v 7.5 4 -5.5
v -8.5 3 -8.5
v -8.5 4 -8.5
v -4.5 3 -8.5
v -4.5 4 -8.5
v 4.5 3 -8.5
v 4.5 4 -8.5
v 8.5 3 -8.5
v 8.5 4 -8.5
v -12.5 1 -11.5
v -12.5 2 -11.5
v -11.5 1 -11.5
v -11.5 2 -11.5
v 11.5 1 -11.5
v 11.5 2 -11.5
v 12.5 1 -11.5
v 12.5 2 -11.5
v -12.5 1 11.5
v -12.5 2 11.5
v -11.5 1 11.5
v -11.5 2 11.5
v 11.5 1 11.5
v 11.5 2 11.5
v 12.5 1 11.5
v 12.5 2 11.5
v -8.5 3 8.5
v -8.5 4 8.5
v -4.5 3 8.5
v -4.5 4 8.5
v 4.5 3 8.5
v 4.5 4 8.5
v 8.5 3 8.5
v 8.5 4 8.5
v -7.5 3 5.5
v -7.5 4 5.5
v -5.5 3 5.5
v -5.5 4 5.5
v 5.5 3 5.5
v 5.5 4 5.5
v 7.5 3 5.5
v 7.5 4 5.5
v -1.5 3 1.5
v -1.5 4 1.5
v -0.5 3 1.5
v -0.5 4 1.5
v 0.5 3 1.5
v 0.5 4 1.5
v 1.5 3 1.5
v 1.5 4 1.5
v -0.5 3 -0.5
v -0.5 4 -0.5
v 0.5 3 -0.5
v 0.5 4 -0.5
v -8.5 3 -4.5
v -8.5 4 -4.5
v -4.5 3 -4.5
v -4.5 4 -4.5
v 4.5 3 -4.5
v 4.5 4 -4.5
v 8.5 3 -4.5
v 8.5 4 -4.5
v -7.5 3 -7.5
v -7.5 4 -7.5
v -5.5 3 -7.5
v -5.5 4 -7.5
v 5.5 3 -7.5
v 5.5 4 -7.5
v 7.5 3 -7.5
v 7.5 4 -7.5
v -11.5 1 -11.5
v -11.5 2 -11.5
v -11.5 3 -11.5
v -11.5 4 -11.5
v -1.5 3 -11.5
v -1.5 4 -11.5
v -0.5 3 -11.5
v -0.5 4 -11.5
v 0.5 3 -11.5
v 0.5 4 -11.5
v 1.5 3 -11.5
v 1.5 4 -11.5
v 11.5 1 -11.5
v 11.5 2 -11.5
v 11.5 3 -11.5
v 11.5 4 -11.5
v -12.5 0 -12.5
v -12.5 3 -12.5
v -11.5 1 -12.5
v -11.5 2 -12.5
v 11.5 1 -12.5
v 11.5 2 -12.5
v 12.5 0 -12.5
v 12.5 3 -12.5
v -12.5 0 12.5
v 12.5 0 12.5
v -11.5 0 11.5
v 11.5 0 11.5
v -10.5 0 10.5
v 10.5 0 10.5
v -10.5 0 -10.5
v 10.5 0 -10.5
v -11.5 0 -11.5
v 11.5 0 -11.5
v -12.5 0 -12.5
v 12.5 0 -12.5
v -11.5 2 12.5
v 11.5 2 12.5
v -12.5 2 11.5
v -11.5 2 11.5
v 11.5 2 11.5
v 12.5 2 11.5
v -12.5 2 -11.5
v -11.5 2 -11.5
v 11.5 2 -11.5
v 12.5 2 -11.5
v -11.5 2 -12.5
v 11.5 2 -12.5
v -11.5 1 12.5
v 11.5 1 12.5
v -12.5 1 11.5
v -11.5 1 11.5
v 11.5 1 11.5
v 12.5 1 11.5
v -12.5 1 -11.5
v -11.5 1 -11.5
v 11.5 1 -11.5
v 12.5 1 -11.5
v -11.5 1 -12.5
v 11.5 1 -12.5
v -12.5 3 12.5
v 12.5 3 12.5
v -11.5 3 11.5
v -1.5 3 11.5
v -0.5 3 11.5
v 0.5 3 11.5
v 1.5 3 11.5
v 11.5 3 11.5
v -8.5 3 8.5
v -4.5 3 8.5
v 4.5 3 8.5
v 8.5 3 8.5
v -7.5 3 7.5
v -5.5 3 7.5
v 5.5 3 7.5
v 7.5 3 7.5
v -7.5 3 5.5
v -5.5 3 5.5
v 5.5 3 5.5
v 7.5 3 5.5
v -8.5 3 4.5
v -4.5 3 4.5
v 4.5 3 4.5
v 8.5 3 4.5
v -11.5 3 1.5
v -1.5 3 1.5
v -0.5 3 1.5
v 0.5 3 1.5
v 1.5 3 1.5
v 11.5 3 1.5
v -11.5 3 0.5
v -1.5 3 0.5
v -0.5 3 0.5
v 0.5 3 0.5
v 1.5 3 0.5
v 11.5 3 0.5
v -11.5 3 -0.5
v -1.5 3 -0.5
v -0.5 3 -0.5
v 0.5 3 -0.5
v 1.5 3 -0.5
v 11.5 3 -0.5
v -11.5 3 -1.5
v -1.5 3 -1.5
v -0.5 3 -1.5
v 0.5 3 -1.5
v 1.5 3 -1.5
v 11.5 3 -1.5
v -8.5 3 -4.5
v -4.5 3 -4.5
v 4.5 3 -4.5
v 8.5 3 -4.5
v -7.5 3 -5.5
v -5.5 3 -5.5
v 5.5 3 -5.5
v 7.5 3 -5.5
v -7.5 3 -7.5
v -5.5 3 -7.5
v 5.5 3 -7.5
v 7.5 3 -7.5
v -8.5 3 -8.5
v -4.5 3 -8.5
v 4.5 3 -8.5
v 8.5 3 -8.5
v -11.5 3 -11.5
v -1.5 3 -11.5
v -0.5 3 -11.5
v 0.5 3 -11.5
v 1.5 3 -11.5
v 11.5 3 -11.5
v -12.5 3 -12.5
v 12.5 3 -12.5
v -11.5 4 11.5
v -1.5 4 11.5
v -0.5 4 11.5
v 0.5 4 11.5
v 1.5 4 11.5
v 11.5 4 11.5
v -9.5 4 9.5
v -3.5 4 9.5
v 3.5 4 9.5
v 9.5 4 9.5
v -8.5 4 8.5
v -4.5 4 8.5
v 4.5 4 8.5
v 8.5 4 8.5
v -7.5 4 7.5
v -5.5 4 7.5
v 5.5 4 7.5
v 7.5 4 7.5
v -7.5 4 5.5
v -5.5 4 5.5
v 5.5 4 5.5
v 7.5 4 5.5
v -8.5 4 4.5
v -4.5 4 4.5
v 4.5 4 4.5
v 8.5 4 4.5
v -9.5 4 3.5
v -3.5 4 3.5
v -0.5 4 3.5
v 0.5 4 3.5
v 3.5 4 3.5
v 9.5 4 3.5
v -1.5 4 2.5
v -0.5 4 2.5
v 0.5 4 2.5
v 1.5 4 2.5
v -11.5 4 1.5
v -2.5 4 1.5
v -1.5 4 1.5
v -0.5 4 1.5
v 0.5 4 1.5
v 1.5 4 1.5
v 2.5 4 1.5
v 11.5 4 1.5
v -11.5 4 0.5
v -3.5 4 0.5
v -2.5 4 0.5
v -1.5 4 0.5
v -0.5 4 0.5
v 0.5 4 0.5
v 1.5 4 0.5
v 2.5 4 0.5
v 3.5 4 0.5
v 11.5 4 0.5
v -11.5 4 -0.5
v -3.5 4 -0.5
v -2.5 4 -0.5
v -1.5 4 -0.5
v -0.5 4 -0.5
v 0.5 4 -0.5
v 1.5 4 -0.5
v 2.5 4 -0.5
v 3.5 4 -0.5
v 11.5 4 -0.5
v -11.5 4 -1.5
v -2.5 4 -1.5
v -1.5 4 -1.5
v -0.5 4 -1.5
v 0.5 4 -1.5
v 1.5 4 -1.5
v 2.5 4 -1.5
v 11.5 4 -1.5
v -1.5 4 -2.5
v -0.5 4 -2.5
v 0.5 4 -2.5
v 1.5 4 -2.5
v -9.5 4 -3.5
v -3.5 4 -3.5
v -0.5 4 -3.5
v 0.5 4 -3.5
v 3.5 4 -3.5
v 9.5 4 -3.5
v -8.5 4 -4.5
v -4.5 4 -4.5
v 4.5 4 -4.5
v 8.5 4 -4.5
v -7.5 4 -5.5
v -5.5 4 -5.5
v 5.5 4 -5.5
v 7.5 4 -5.5
v -7.5 4 -7.5
v -5.5 4 -7.5
v 5.5 4 -7.5
v 7.5 4 -7.5
v -8.5 4 -8.5
v -4.5 4 -8.5
v 4.5 4 -8.5
v 8.5 4 -8.5
v -9.5 4 -9.5
v -3.5 4 -9.5
v 3.5 4 -9.5
v 9.5 4 -9.5
v -11.5 4 -11.5
v -1.5 4 -11.5
v -0.5 4 -11.5
v 0.5 4 -11.5
v 1.5 4 -11.5
v 11.5 4 -11.5

# faces
f 3/3/1 2/3/1 1/3/1
f 4/3/1 2/3/1 3/3/1
f 5/3/1 3/3/1 1/3/1
f 6/3/1 2/3/1 4/3/1
f 7/3/1 5/3/1 1/3/1
f 7/3/1 6/3/1 5/3/1
f 8/3/1 2/3/1 6/3/1
f 8/3/1 6/3/1 7/3/1
f 11/1/1 10/1/1 9/1/1
f 12/1/1 10/1/1 11/1/1
f 19/3/1 14/3/1 13/3/1
f 20/2/1 15/2/1 14/2/1
f 20/3/1 14/3/1 19/3/1
f 21/3/1 16/3/1 15/3/1
f 21/2/1 15/2/1 20/2/1
f 22/2/1 17/2/1 16/2/1
f 22/3/1 16/3/1 21/3/1
f 23/3/1 18/3/1 17/3/1
f 23/2/1 17/2/1 22/2/1
f 24/3/1 18/3/1 23/3/1
f 29/3/1 26/3/1 25/3/1
f 30/3/1 26/3/1 29/3/1
f 31/3/1 28/3/1 27/3/1
f 32/3/1 28/3/1 31/3/1
f 37/2/1 34/2/1 33/2/1
f 38/2/1 34/2/1 37/2/1
f 39/2/1 36/2/1 35/2/1
f 40/2/1 36/2/1 39/2/1
f 43/3/1 42/3/1 41/3/1
f 44/3/1 42/3/1 43/3/1
f 49/3/1 46/3/1 45/3/1
f 50/2/1 47/2/1 46/2/1
f 50/3/1 46/3/1 49/3/1
f 51/3/1 48/3/1 47/3/1
f 51/2/1 47/2/1 50/2/1
f 52/3/1 48/3/1 51/3/1
f 57/3/1 54/3/1 53/3/1
f 58/3/1 54/3/1 57/3/1
f 59/3/1 56/3/1 55/3/1
f 60/3/1 56/3/1 59/3/1
f 65/2/1 62/2/1 61/2/1
f 66/2/1 62/2/1 65/2/1
f 67/2/1 64/2/1 63/2/1
f 68/2/1 64/2/1 67/2/1
f 73/3/1 70/3/1 69/3/1
f 74/3/1 70/3/1 73/3/1
f 75/3/1 72/3/1 71/3/1
f 76/3/1 72/3/1 75/3/1
f 77/3/2 78/3/2 81/3/2
f 81/3/2 78/3/2 82/3/2
f 79/3/2 80/3/2 83/3/2
f 83/3/2 80/3/2 84/3/2
f 85/2/2 86/2/2 89/2/2
f 89/2/2 86/2/2 90/2/2
f 87/2/2 88/2/2 91/2/2
f 91/2/2 88/2/2 92/2/2
f 93/3/2 94/3/2 97/3/2
f 97/3/2 94/3/2 98/3/2
f 95/3/2 96/3/2 99/3/2
f 99/3/2 96/3/2 100/3/2
f 101/3/2 102/3/2 105/3/2
f 102/2/2 103/2/2 106/2/2
f 105/3/2 102/3/2 106/3/2
f 103/3/2 104/3/2 107/3/2
f 106/2/2 103/2/2 107/2/2
f 107/3/2 104/3/2 108/3/2
f 109/3/2 110/3/2 111/3/2
f 111/3/2 110/3/2 112/3/2
f 113/2/2 114/2/2 117/2/2
f 117/2/2 114/2/2 118/2/2
f 115/2/2 116/2/2 119/2/2
f 119/2/2 116/2/2 120/2/2
f 121/3/2 122/3/2 125/3/2
f 125/3/2 122/3/2 126/3/2
f 123/3/2 124/3/2 127/3/2
f 127/3/2 124/3/2 128/3/2
f 129/1/2 130/1/2 131/1/2
f 131/1/2 130/1/2 132/1/2
f 133/3/2 134/3/2 139/3/2
f 134/2/2 135/2/2 140/2/2
f 139/3/2 134/3/2 140/3/2
f 135/3/2 136/3/2 141/3/2
f 140/2/2 135/2/2 141/2/2
f 136/2/2 137/2/2 142/2/2
f 141/3/2 136/3/2 142/3/2
f 137/3/2 138/3/2 143/3/2
f 142/2/2 137/2/2 143/2/2
f 143/3/2 138/3/2 144/3/2
f 145/3/2 146/3/2 147/3/2
f 147/3/2 146/3/2 148/3/2
f 145/3/2 147/3/2 149/3/2
f 148/3/2 146/3/2 150/3/2
f 145/3/2 149/3/2 151/3/2
f 149/3/2 150/3/2 151/3/2
f 150/3/2 146/3/2 152/3/2
f 151/3/2 150/3/2 152/3/2
f 155/3/3 154/3/3 153/3/3
f 156/3/3 154/3/3 155/3/3
f 157/3/3 155/3/3 153/3/3
f 158/3/3 154/3/3 156/3/3
f 159/3/3 157/3/3 153/3/3
f 159/3/3 158/3/3 157/3/3
f 160/3/3 154/3/3 158/3/3
f 160/3/3 158/3/3 159/3/3
f 165/3/3 164/3/3 163/3/3
f 166/3/3 164/3/3 165/3/3
f 167/2/3 166/2/3 165/2/3
f 168/2/3 166/2/3 167/2/3
f 169/3/3 168/3/3 167/3/3
f 170/3/3 168/3/3 169/3/3
f 171/2/3 170/2/3 169/2/3
f 172/2/3 170/2/3 171/2/3
f 173/1/3 162/1/3 161/1/3
f 174/1/3 162/1/3 173/1/3
f 175/3/3 172/3/3 171/3/3
f 176/3/3 172/3/3 175/3/3
f 179/3/3 178/3/3 177/3/3
f 180/3/3 178/3/3 179/3/3
f 183/3/3 182/3/3 181/3/3
f 184/3/3 182/3/3 183/3/3
f 187/2/3 186/2/3 185/2/3
f 188/2/3 186/2/3 187/2/3
f 191/2/3 190/2/3 189/2/3
f 192/2/3 190/2/3 191/2/3
f 195/3/3 194/3/3 193/3/3
f 196/3/3 194/3/3 195/3/3
f 199/3/3 198/3/3 197/3/3
f 200/3/3 198/3/3 199/3/3
f 201/2/3 200/2/3 199/2/3
f 202/2/3 200/2/3 201/2/3
f 203/3/3 202/3/3 201/3/3
f 204/3/3 202/3/3 203/3/3
f 207/3/3 206/3/3 205/3/3
f 208/3/3 206/3/3 207/3/3
f 211/3/3 210/3/3 209/3/3
f 212/3/3 210/3/3 211/3/3
f 215/2/3 214/2/3 213/2/3
f 216/2/3 214/2/3 215/2/3
f 219/2/3 218/2/3 217/2/3
f 220/2/3 218/2/3 219/2/3
f 223/3/3 222/3/3 221/3/3
f 224/3/3 222/3/3 223/3/3
f 227/3/3 226/3/3 225/3/3
f 228/3/3 226/3/3 227/3/3
f 229/3/4 230/3/4 231/3/4
f 231/3/4 230/3/4 232/3/4
f 233/3/4 234/3/4 235/3/4
f 235/3/4 234/3/4 236/3/4
f 237/2/4 238/2/4 239/2/4
f 239/2/4 238/2/4 240/2/4
f 241/2/4 242/2/4 243/2/4
f 243/2/4 242/2/4 244/2/4
f 245/3/4 246/3/4 247/3/4
f 247/3/4 246/3/4 248/3/4
f 249/3/4 250/3/4 251/3/4
f 251/3/4 250/3/4 252/3/4
f 253/3/4 254/3/4 255/3/4
f 255/3/4 254/3/4 256/3/4
f 255/2/4 256/2/4 257/2/4
f 257/2/4 256/2/4 258/2/4
f 257/3/4 258/3/4 259/3/4
f 259/3/4 258/3/4 260/3/4
f 261/3/4 262/3/4 263/3/4
f 263/3/4 262/3/4 264/3/4
f 265/2/4 266/2/4 267/2/4
f 267/2/4 266/2/4 268/2/4
f 269/2/4 270/2/4 271/2/4
f 271/2/4 270/2/4 272/2/4
f 273/3/4 274/3/4 275/3/4
f 275/3/4 274/3/4 276/3/4
f 277/3/4 278/3/4 279/3/4
f 279/3/4 278/3/4 280/3/4
f 283/3/4 284/3/4 285/3/4
f 285/3/4 284/3/4 286/3/4
f 285/2/4 286/2/4 287/2/4
f 287/2/4 286/2/4 288/2/4
f 287/3/4 288/3/4 289/3/4
f 289/3/4 288/3/4 290/3/4
f 289/2/4 290/2/4 291/2/4
f 291/2/4 290/2/4 292/2/4
f 281/1/4 282/1/4 293/1/4
f 293/1/4 282/1/4 294/1/4
f 291/3/4 292/3/4 295/3/4
f 295/3/4 292/3/4 296/3/4
f 297/3/4 298/3/4 299/3/4
f 299/3/4 298/3/4 300/3/4
f 297/3/4 299/3/4 301/3/4
f 300/3/4 298/3/4 302/3/4
f 297/3/4 301/3/4 303/3/4
f 301/3/4 302/3/4 303/3/4
f 302/3/4 298/3/4 304/3/4
f 303/3/4 302/3/4 304/3/4
f 307/3/5 306/3/5 305/3/5
f 308/3/5 306/3/5 307/3/5
f 309/5/5 308/5/5 307/5/5
f 310/5/5 308/5/5 309/5/5
f 311/5/5 309/5/5 307/5/5
f 311/3/5 310/3/5 309/3/5
f 312/5/5 308/5/5 310/5/5
f 312/3/5 310/3/5 311/3/5
f 313/3/5 307/3/5 305/3/5
f 313/5/5 311/5/5 307/5/5
f 313/5/5 312/5/5 311/5/5
f 314/5/5 308/5/5 312/5/5
f 314/5/5 312/5/5 313/5/5
f 314/3/5 306/3/5 308/3/5
f 315/3/5 313/3/5 305/3/5
f 315/3/5 314/3/5 313/3/5
f 316/3/5 306/3/5 314/3/5
f 316/3/5 314/3/5 315/3/5
f 320/3/5 318/3/5 317/3/5
f 321/3/5 318/3/5 320/3/5
f 323/3/5 320/3/5 319/3/5
f 324/3/5 320/3/5 323/3/5
f 325/3/5 322/3/5 321/3/5
f 326/3/5 322/3/5 325/3/5
f 327/3/5 325/3/5 324/3/5
f 328/3/5 325/3/5 327/3/5
f 329/3/6 330/3/6 332/3/6
f 332/3/6 330/3/6 333/3/6
f 331/3/6 332/3/6 335/3/6
f 335/3/6 332/3/6 336/3/6
f 333/3/6 334/3/6 337/3/6
f 337/3/6 334/3/6 338/3/6
f 336/3/6 337/3/6 339/3/6
f 339/3/6 337/3/6 340/3/6
f 341/3/6 342/3/6 343/3/6
f 343/3/6 342/3/6 344/3/6
f 344/3/6 342/3/6 345/3/6
f 345/3/6 342/3/6 346/3/6
f 346/3/6 342/3/6 347/3/6
f 347/3/6 342/3/6 348/3/6
f 349/5/6 350/5/6 353/5/6
f 353/5/6 350/5/6 354/5/6
f 351/5/6 352/5/6 355/5/6
f 355/5/6 352/5/6 356/5/6
f 349/5/6 353/5/6 357/5/6
f 354/5/6 350/5/6 358/5/6
f 351/5/6 355/5/6 359/5/6
f 356/5/6 352/5/6 360/5/6
f 349/5/6 357/5/6 361/5/6
f 357/5/6 358/5/6 361/5/6
f 358/5/6 350/5/6 362/5/6
f 361/5/6 358/5/6 362/5/6
f 359/5/6 360/5/6 363/5/6
f 351/5/6 359/5/6 363/5/6
f 360/5/6 352/5/6 364/5/6
f 363/5/6 360/5/6 364/5/6
f 341/3/6 343/3/6 365/3/6
f 348/3/6 342/3/6 370/3/6
f 341/3/6 365/3/6 371/3/6
f 368/1/6 369/1/6 372/1/6
f 367/1/6 368/1/6 372/1/6
f 366/1/6 367/1/6 372/1/6
f 372/1/6 369/1/6 373/1/6
f 373/1/6 369/1/6 374/1/6
f 374/1/6 369/1/6 375/1/6
f 370/3/6 342/3/6 376/3/6
f 341/3/6 371/3/6 377/3/6
f 372/1/6 373/1/6 378/1/6
f 378/1/6 373/1/6 379/1/6
f 374/1/6 375/1/6 380/1/6
f 380/1/6 375/1/6 381/1/6
f 376/3/6 342/3/6 382/3/6
f 341/3/6 377/3/6 383/3/6
f 380/1/6 381/1/6 384/1/6
f 378/1/6 379/1/6 384/1/6
f 379/1/6 380/1/6 384/1/6
f 384/1/6 381/1/6 385/1/6
f 385/1/6 381/1/6 386/1/6
f 386/1/6 381/1/6 387/1/6
f 382/3/6 342/3/6 388/3/6
f 389/5/6 390/5/6 393/5/6
f 393/5/6 390/5/6 394/5/6
f 391/5/6 392/5/6 395/5/6
f 395/5/6 392/5/6 396/5/6
f 389/5/6 393/5/6 397/5/6
f 394/5/6 390/5/6 398/5/6
f 391/5/6 395/5/6 399/5/6
f 396/5/6 392/5/6 400/5/6
f 389/5/6 397/5/6 401/5/6
f 397/5/6 398/5/6 401/5/6
f 398/5/6 390/5/6 402/5/6
f 401/5/6 398/5/6 402/5/6
f 399/5/6 400/5/6 403/5/6
f 391/5/6 399/5/6 403/5/6
f 400/5/6 392/5/6 404/5/6
f 403/5/6 400/5/6 404/5/6
f 341/3/6 383/3/6 405/3/6
f 388/3/6 342/3/6 410/3/6
f 408/3/6 409/3/6 411/3/6
f 409/3/6 410/3/6 411/3/6
f 407/3/6 408/3/6 411/3/6
f 341/3/6 405/3/6 411/3/6
f 406/3/6 407/3/6 411/3/6
f 405/3/6 406/3/6 411/3/6
f 410/3/6 342/3/6 412/3/6
f 411/3/6 410/3/6 412/3/6
f 413/3/6 414/3/6 419/3/6
f 419/3/6 414/3/6 420/3/6
f 417/3/6 418/3/6 421/3/6
f 421/3/6 418/3/6 422/3/6
f 419/2/6 420/2/6 423/2/6
f 423/2/6 420/2/6 424/2/6
f 421/2/6 422/2/6 425/2/6
f 425/2/6 422/2/6 426/2/6
f 427/3/6 428/3/6 431/3/6
f 431/3/6 428/3/6 432/3/6
f 429/3/6 430/3/6 433/3/6
f 433/3/6 430/3/6 434/3/6
f 419/2/6 423/2/6 435/2/6
f 424/2/6 420/2/6 436/2/6
f 421/2/6 425/2/6 437/2/6
f 426/2/6 422/2/6 438/2/6
f 413/3/6 419/3/6 439/3/6
f 419/2/6 435/2/6 439/2/6
f 435/2/6 436/2/6 439/2/6
f 420/3/6 414/3/6 440/3/6
f 439/2/6 436/2/6 440/2/6
f 436/2/6 420/2/6 440/2/6
f 414/2/6 415/2/6 441/2/6
f 415/3/6 416/3/6 441/3/6
f 416/2/6 417/2/6 442/2/6
f 441/3/6 416/3/6 442/3/6
f 437/2/6 438/2/6 443/2/6
f 417/3/6 421/3/6 443/3/6
f 421/2/6 437/2/6 443/2/6
f 422/3/6 418/3/6 444/3/6
f 443/2/6 438/2/6 444/2/6
f 438/2/6 422/2/6 444/2/6
f 440/3/6 414/3/6 445/3/6
f 439/3/6 440/3/6 445/3/6
f 414/2/6 441/2/6 445/2/6
f 441/2/6 442/2/6 445/2/6
f 445/2/6 442/2/6 446/2/6
f 442/2/6 417/2/6 447/2/6
f 446/2/6 442/2/6 447/2/6
f 443/3/6 444/3/6 448/3/6
f 447/2/6 417/2/6 448/2/6
f 417/3/6 443/3/6 448/3/6
f 413/3/6 439/3/6 449/3/6
f 445/3/6 446/3/6 449/3/6
f 439/3/6 445/3/6 449/3/6
f 449/3/6 446/3/6 450/3/6
f 450/3/6 446/3/6 451/3/6
f 446/2/6 447/2/6 452/2/6
f 451/3/6 446/3/6 452/3/6
f 447/3/6 448/3/6 453/3/6
f 452/2/6 447/2/6 453/2/6
f 448/3/6 444/3/6 454/3/6
f 453/3/6 448/3/6 454/3/6
f 454/3/6 444/3/6 455/3/6
f 444/3/6 418/3/6 456/3/6
f 455/3/6 444/3/6 456/3/6
f 449/2/6 450/2/6 457/2/6
f 457/2/6 450/2/6 458/2/6
f 450/3/6 451/3/6 459/3/6
f 458/2/6 450/2/6 459/2/6
f 459/3/6 451/3/6 460/3/6
f 454/3/6 455/3/6 463/3/6
f 455/2/6 456/2/6 464/2/6
f 463/3/6 455/3/6 464/3/6
f 464/2/6 456/2/6 465/2/6
f 465/2/6 456/2/6 466/2/6
f 457/3/6 458/3/6 467/3/6
f 458/2/6 459/2/6 468/2/6
f 467/3/6 458/3/6 468/3/6
f 459/2/6 460/2/6 468/2/6
f 468/2/6 460/2/6 469/2/6
f 469/2/6 460/2/6 470/2/6
f 461/3/6 462/3/6 471/3/6
f 471/3/6 462/3/6 472/3/6
f 463/2/6 464/2/6 473/2/6
f 464/2/6 465/2/6 473/2/6
f 473/2/6 465/2/6 474/2/6
f 465/3/6 466/3/6 475/3/6
f 474/2/6 465/2/6 475/2/6
f 475/3/6 466/3/6 476/3/6
f 467/2/6 468/2/6 477/2/6
f 468/2/6 469/2/6 477/2/6
f 469/3/6 470/3/6 478/3/6
f 477/2/6 469/2/6 478/2/6
f 478/3/6 470/3/6 479/3/6
f 473/3/6 474/3/6 482/3/6
f 475/2/6 476/2/6 483/2/6
f 474/2/6 475/2/6 483/2/6
f 482/3/6 474/3/6 483/3/6
f 483/2/6 476/2/6 484/2/6
f 477/3/6 478/3/6 485/3/6
f 478/3/6 479/3/6 485/3/6
f 479/3/6 480/3/6 485/3/6
f 480/2/6 481/2/6 486/2/6
f 485/3/6 480/3/6 486/3/6
f 481/3/6 482/3/6 487/3/6
f 486/2/6 481/2/6 487/2/6
f 483/3/6 484/3/6 487/3/6
f 482/3/6 483/3/6 487/3/6
f 487/3/6 484/3/6 488/3/6
f 477/3/6 485/3/6 489/3/6
f 489/3/6 485/3/6 490/3/6
f 485/2/6 486/2/6 491/2/6
f 486/2/6 487/2/6 491/2/6
f 487/2/6 488/2/6 491/2/6
f 491/2/6 488/2/6 492/2/6
f 488/3/6 484/3/6 493/3/6
f 493/3/6 484/3/6 494/3/6
f 489/2/6 490/2/6 495/2/6
f 495/2/6 490/2/6 496/2/6
f 493/2/6 494/2/6 497/2/6
f 497/2/6 494/2/6 498/2/6
f 499/3/6 500/3/6 503/3/6
f 503/3/6 500/3/6 504/3/6
f 501/3/6 502/3/6 505/3/6
f 505/3/6 502/3/6 506/3/6
f 489/2/6 495/2/6 507/2/6
f 496/2/6 490/2/6 508/2/6
f 493/2/6 497/2/6 509/2/6
f 498/2/6 494/2/6 510/2/6
f 477/3/6 489/3/6 511/3/6
f 489/2/6 507/2/6 511/2/6
f 507/2/6 508/2/6 511/2/6
f 490/3/6 485/3/6 512/3/6
f 511/2/6 508/2/6 512/2/6
f 508/2/6 490/2/6 512/2/6
f 509/2/6 510/2/6 513/2/6
f 488/3/6 493/3/6 513/3/6
f 493/2/6 509/2/6 513/2/6
f 494/3/6 484/3/6 514/3/6
f 513/2/6 510/2/6 514/2/6
f 510/2/6 494/2/6 514/2/6
f 477/3/6 511/3/6 515/3/6
f 511/3/6 512/3/6 515/3/6
f 512/3/6 485/3/6 516/3/6
f 515/3/6 512/3/6 516/3/6
f 485/2/6 491/2/6 516/2/6
f 491/3/6 492/3/6 517/3/6
f 516/2/6 491/2/6 517/2/6
f 492/2/6 488/2/6 518/2/6
f 517/3/6 492/3/6 518/3/6
f 488/3/6 513/3/6 519/3/6
f 518/2/6 488/2/6 519/2/6
f 513/3/6 514/3/6 519/3/6
f 514/3/6 484/3/6 520/3/6
f 519/3/6 514/3/6 520/3/6
