# MagicaVoxel @ Ephtracy

# material
mtllib Traveler.mtl
usemtl palette

# normals
vn -1 0 0
vn 1 0 0
vn 0 0 1
vn 0 0 -1
vn 0 -1 0
vn 0 1 0

# texcoords
vt 0.798828 0.5
vt 0.822266 0.5
vt 0.970703 0.5
vt 0.978516 0.5
vt 0.982422 0.5
vt 0.986328 0.5

# verts
v -25 6 25
v -25 6 -25
v -25 7 24
v -25 7 -24
v -25 9 24
v -25 9 -24
v -25 10 25
v -25 10 -25
v -24 5 24
v -24 5 -24
v -24 6 24
v -24 6 -24
v -23 4 23
v -23 4 -23
v -23 5 23
v -23 5 -23
v -22 3 22
v -22 3 -22
v -22 4 22
v -22 4 -22
v -21 1 21
v -21 1 -21
v -21 3 21
v -21 3 -21
v -20 0 20
v -20 0 -20
v -20 1 20
v -20 1 -20
v -14 0 14
v -14 0 6
v -14 0 -6
v -14 0 -14
v -14 1 14
v -14 1 6
v -14 1 -6
v -14 1 -14
v -9 1 11
v -9 1 9
v -9 1 -9
v -9 1 -11
v -9 2 11
v -9 2 9
v -9 2 -9
v -9 2 -11
v -8 0 12
v -8 0 8
v -8 0 -8
v -8 0 -12
v -8 1 12
v -8 1 8
v -8 1 -8
v -8 1 -12
v -5 0 15
v -5 0 5
v -5 0 -5
v -5 0 -15
v -5 1 15
v -5 1 5
v -5 1 -5
v -5 1 -15
v 5 9 5
v 5 9 -5
v 5 10 5
v 5 10 -5
v 6 0 14
v 6 0 6
v 6 0 -6
v 6 0 -14
v 6 1 14
v 6 1 6
v 6 1 -6
v 6 1 -14
v 11 1 11
v 11 1 9
v 11 1 -9
v 11 1 -11
v 11 2 11
v 11 2 9
v 11 2 -9
v 11 2 -11
v 12 0 12
v 12 0 8
v 12 0 -8
v 12 0 -12
v 12 1 12
v 12 1 8
v 12 1 -8
v 12 1 -12
v 15 0 15
v 15 0 5
v 15 0 -5
v 15 0 -15
v 15 1 15
v 15 1 5
v 15 1 -5
v 15 1 -15
v -15 0 15
v -15 0 5
v -15 0 -5
v -15 0 -15
v -15 1 15
v -15 1 5
v -15 1 -5
v -15 1 -15
v -12 0 12
v -12 0 8
v -12 0 -8
v -12 0 -12
v -12 1 12
v -12 1 8
v -12 1 -8
v -12 1 -12
v -11 1 11
v -11 1 9
v -11 1 -9
v -11 1 -11
v -11 2 11
v -11 2 9
v -11 2 -9
v -11 2 -11
v -6 0 14
v -6 0 6
v -6 0 -6
v -6 0 -14
v -6 1 14
v -6 1 6
v -6 1 -6
v -6 1 -14
v -5 9 5
v -5 9 -5
v -5 10 5
v -5 10 -5
v 5 0 15
v 5 0 5
v 5 0 -5
v 5 0 -15
v 5 1 15
v 5 1 5
v 5 1 -5
v 5 1 -15
v 8 0 12
v 8 0 8
v 8 0 -8
v 8 0 -12
v 8 1 12
v 8 1 8
v 8 1 -8
v 8 1 -12
v 9 1 11
v 9 1 9
v 9 1 -9
v 9 1 -11
v 9 2 11
v 9 2 9
v 9 2 -9
v 9 2 -11
v 14 0 14
v 14 0 6
v 14 0 -6
v 14 0 -14
v 14 1 14
v 14 1 6
v 14 1 -6
v 14 1 -14
v 20 0 20
v 20 0 -20
v 20 1 20
v 20 1 -20
v 21 1 21
v 21 1 -21
v 21 3 21
v 21 3 -21
v 22 3 22
v 22 3 -22
v 22 4 22
v 22 4 -22
v 23 4 23
v 23 4 -23
v 23 5 23
v 23 5 -23
v 24 5 24
v 24 5 -24
v 24 6 24
v 24 6 -24
v 25 6 25
v 25 6 -25
v 25 7 24
v 25 7 -24
v 25 9 24
v 25 9 -24
v 25 10 25
v 25 10 -25
v -25 6 25
v -25 10 25
v -24 7 25
v -24 9 25
v 24 7 25
v 24 9 25
v 25 6 25
v 25 10 25
v -24 5 24
v -24 6 24
v 24 5 24
v 24 6 24
v -23 4 23
v -23 5 23
v 23 4 23
v 23 5 23
v -22 3 22
v -22 4 22
v 22 3 22
v 22 4 22
v -21 1 21
v -21 3 21
v 21 1 21
v 21 3 21
v -20 0 20
v -20 1 20
v 20 0 20
v 20 1 20
v -14 0 14
v -14 1 14
v -6 0 14
v -6 1 14
v 6 0 14
v 6 1 14
v 14 0 14
v 14 1 14
v -11 1 9
v -11 2 9
v -9 1 9
v -9 2 9
v 9 1 9
v 9 2 9
v 11 1 9
v 11 2 9
v -12 0 8
v -12 1 8
v -8 0 8
v -8 1 8
v 8 0 8
v 8 1 8
v 12 0 8
v 12 1 8
v -15 0 5
v -15 1 5
v -5 0 5
v -5 1 5
v 5 0 5
v 5 1 5
v 15 0 5
v 15 1 5
v -5 9 -5
v -5 10 -5
v 5 9 -5
v 5 10 -5
v -14 0 -6
v -14 1 -6
v -6 0 -6
v -6 1 -6
v 6 0 -6
v 6 1 -6
v 14 0 -6
v 14 1 -6
v -11 1 -11
v -11 2 -11
v -9 1 -11
v -9 2 -11
v 9 1 -11
v 9 2 -11
v 11 1 -11
v 11 2 -11
v -12 0 -12
v -12 1 -12
v -8 0 -12
v -8 1 -12
v 8 0 -12
v 8 1 -12
v 12 0 -12
v 12 1 -12
v -15 0 -15
v -15 1 -15
v -5 0 -15
v -5 1 -15
v 5 0 -15
v 5 1 -15
v 15 0 -15
v 15 1 -15
v -15 0 15
v -15 1 15
v -5 0 15
v -5 1 15
v 5 0 15
v 5 1 15
v 15 0 15
v 15 1 15
v -12 0 12
v -12 1 12
v -8 0 12
v -8 1 12
v 8 0 12
v 8 1 12
v 12 0 12
v 12 1 12
v -11 1 11
v -11 2 11
v -9 1 11
v -9 2 11
v 9 1 11
v 9 2 11
v 11 1 11
v 11 2 11
v -14 0 6
v -14 1 6
v -6 0 6
v -6 1 6
v 6 0 6
v 6 1 6
v 14 0 6
v 14 1 6
v -5 9 5
v -5 10 5
v 5 9 5
v 5 10 5
v -15 0 -5
v -15 1 -5
v -5 0 -5
v -5 1 -5
v 5 0 -5
v 5 1 -5
v 15 0 -5
v 15 1 -5
v -12 0 -8
v -12 1 -8
v -8 0 -8
v -8 1 -8
v 8 0 -8
v 8 1 -8
v 12 0 -8
v 12 1 -8
v -11 1 -9
v -11 2 -9
v -9 1 -9
v -9 2 -9
v 9 1 -9
v 9 2 -9
v 11 1 -9
v 11 2 -9
v -14 0 -14
v -14 1 -14
v -6 0 -14
v -6 1 -14
v 6 0 -14
v 6 1 -14
v 14 0 -14
v 14 1 -14
v -20 0 -20
v -20 1 -20
v 20 0 -20
v 20 1 -20
v -21 1 -21
v -21 3 -21
v 21 1 -21
v 21 3 -21
v -22 3 -22
v -22 4 -22
v 22 3 -22
v 22 4 -22
v -23 4 -23
v -23 5 -23
v 23 4 -23
v 23 5 -23
v -24 5 -24
v -24 6 -24
v 24 5 -24
v 24 6 -24
v -25 6 -25
v -25 10 -25
v -24 7 -25
v -24 9 -25
v 24 7 -25
v 24 9 -25
v 25 6 -25
v 25 10 -25
v -20 0 20
v 20 0 20
v -15 0 15
v -5 0 15
v 5 0 15
v 15 0 15
v -14 0 14
v -6 0 14
v 6 0 14
v 14 0 14
v -12 0 12
v -8 0 12
v 8 0 12
v 12 0 12
v -12 0 8
v -8 0 8
v 8 0 8
v 12 0 8
v -14 0 6
v -6 0 6
v 6 0 6
v 14 0 6
v -15 0 5
v -5 0 5
v 5 0 5
v 15 0 5
v -15 0 -5
v -5 0 -5
v 5 0 -5
v 15 0 -5
v -14 0 -6
v -6 0 -6
v 6 0 -6
v 14 0 -6
v -12 0 -8
v -8 0 -8
v 8 0 -8
v 12 0 -8
v -12 0 -12
v -8 0 -12
v 8 0 -12
v 12 0 -12
v -14 0 -14
v -6 0 -14
v 6 0 -14
v 14 0 -14
v -15 0 -15
v -5 0 -15
v 5 0 -15
v 15 0 -15
v -20 0 -20
v 20 0 -20
v -21 1 21
v 21 1 21
v -20 1 20
v 20 1 20
v -15 1 15
v -5 1 15
v 5 1 15
v 15 1 15
v -14 1 14
v -6 1 14
v 6 1 14
v 14 1 14
v -12 1 12
v -8 1 12
v 8 1 12
v 12 1 12
v -11 1 11
v -9 1 11
v 9 1 11
v 11 1 11
v -11 1 9
v -9 1 9
v 9 1 9
v 11 1 9
v -12 1 8
v -8 1 8
v 8 1 8
v 12 1 8
v -14 1 6
v -6 1 6
v 6 1 6
v 14 1 6
v -15 1 5
v -5 1 5
v 5 1 5
v 15 1 5
v -15 1 -5
v -5 1 -5
v 5 1 -5
v 15 1 -5
v -14 1 -6
v -6 1 -6
v 6 1 -6
v 14 1 -6
v -12 1 -8
v -8 1 -8
v 8 1 -8
v 12 1 -8
v -11 1 -9
v -9 1 -9
v 9 1 -9
v 11 1 -9
v -11 1 -11
v -9 1 -11
v 9 1 -11
v 11 1 -11
v -12 1 -12
v -8 1 -12
v 8 1 -12
v 12 1 -12
v -14 1 -14
v -6 1 -14
v 6 1 -14
v 14 1 -14
v -15 1 -15
v -5 1 -15
v 5 1 -15
v 15 1 -15
v -20 1 -20
v 20 1 -20
v -21 1 -21
v 21 1 -21
v -11 2 11
v -9 2 11
v 9 2 11
v 11 2 11
v -11 2 9
v -9 2 9
v 9 2 9
v 11 2 9
v -11 2 -9
v -9 2 -9
v 9 2 -9
v 11 2 -9
v -11 2 -11
v -9 2 -11
v 9 2 -11
v 11 2 -11
v -22 3 22
v 22 3 22
v -21 3 21
v 21 3 21
v -21 3 -21
v 21 3 -21
v -22 3 -22
v 22 3 -22
v -23 4 23
v 23 4 23
v -22 4 22
v 22 4 22
v -22 4 -22
v 22 4 -22
v -23 4 -23
v 23 4 -23
v -24 5 24
v 24 5 24
v -23 5 23
v 23 5 23
v -23 5 -23
v 23 5 -23
v -24 5 -24
v 24 5 -24
v -25 6 25
v 25 6 25
v -24 6 24
v 24 6 24
v -24 6 -24
v 24 6 -24
v -25 6 -25
v 25 6 -25
v -5 9 5
v 5 9 5
v -4 9 4
v 4 9 4
v -3 9 3
v 3 9 3
v -2 9 2
v 2 9 2
v -2 9 -2
v 2 9 -2
v -3 9 -3
v 3 9 -3
v -4 9 -4
v 4 9 -4
v -5 9 -5
v 5 9 -5
v -25 10 25
v 25 10 25
v -24 10 24
v -10 10 24
v -8 10 24
v -7 10 24
v -5 10 24
v -4 10 24
v -3 10 24
v -1 10 24
v 1 10 24
v 3 10 24
v 4 10 24
v 5 10 24
v 7 10 24
v 8 10 24
v 10 10 24
v 24 10 24
v -3 10 11
v -1 10 11
v 1 10 11
v 3 10 11
v -24 10 10
v -10 10 10
v -4 10 10
v 4 10 10
v 10 10 10
v 24 10 10
v -24 10 8
v -8 10 8
v 8 10 8
v 24 10 8
v -24 10 7
v -7 10 7
v -6 10 7
v -5 10 7
v 5 10 7
v 6 10 7
v 7 10 7
v 24 10 7
v -7 10 6
v -6 10 6
v 6 10 6
v 7 10 6
v -24 10 5
v -7 10 5
v -5 10 5
v 5 10 5
v 7 10 5
v 24 10 5
v -24 10 4
v -10 10 4
v 10 10 4
v 24 10 4
v -24 10 3
v -11 10 3
v 11 10 3
v 24 10 3
v -24 10 1
v -11 10 1
v 11 10 1
v 24 10 1
v -24 10 -1
v -11 10 -1
v 11 10 -1
v 24 10 -1
v -24 10 -3
v -11 10 -3
v 11 10 -3
v 24 10 -3
v -24 10 -4
v -10 10 -4
v 10 10 -4
v 24 10 -4
v -24 10 -5
v -7 10 -5
v -5 10 -5
v 5 10 -5
v 7 10 -5
v 24 10 -5
v -7 10 -6
v -6 10 -6
v 6 10 -6
v 7 10 -6
v -24 10 -7
v -7 10 -7
v -6 10 -7
v -5 10 -7
v 5 10 -7
v 6 10 -7
v 7 10 -7
v 24 10 -7
v -24 10 -8
v -8 10 -8
v 8 10 -8
v 24 10 -8
v -24 10 -10
v -10 10 -10
v -4 10 -10
v 4 10 -10
v 10 10 -10
v 24 10 -10
v -3 10 -11
v -1 10 -11
v 1 10 -11
v 3 10 -11
v -24 10 -24
v -10 10 -24
v -8 10 -24
v -7 10 -24
v -5 10 -24
v -4 10 -24
v -3 10 -24
v -1 10 -24
v 1 10 -24
v 3 10 -24
v 4 10 -24
v 5 10 -24
v 7 10 -24
v 8 10 -24
v 10 10 -24
v 24 10 -24
v -25 10 -25
v 25 10 -25

# faces
f 3/3/1 2/3/1 1/3/1
f 4/3/1 2/3/1 3/3/1
f 5/3/1 3/3/1 1/3/1
f 5/6/1 4/6/1 3/6/1
f 6/3/1 2/3/1 4/3/1
f 6/6/1 4/6/1 5/6/1
f 7/3/1 5/3/1 1/3/1
f 7/3/1 6/3/1 5/3/1
f 8/3/1 2/3/1 6/3/1
f 8/3/1 6/3/1 7/3/1
f 11/4/1 10/4/1 9/4/1
f 12/4/1 10/4/1 11/4/1
f 15/4/1 14/4/1 13/4/1
f 16/4/1 14/4/1 15/4/1
f 19/4/1 18/4/1 17/4/1
f 20/4/1 18/4/1 19/4/1
f 23/4/1 22/4/1 21/4/1
f 24/4/1 22/4/1 23/4/1
f 27/4/1 26/4/1 25/4/1
f 28/4/1 26/4/1 27/4/1
f 33/3/1 30/3/1 29/3/1
f 34/3/1 30/3/1 33/3/1
f 35/3/1 32/3/1 31/3/1
f 36/3/1 32/3/1 35/3/1
f 41/2/1 38/2/1 37/2/1
f 42/2/1 38/2/1 41/2/1
f 43/2/1 40/2/1 39/2/1
f 44/2/1 40/2/1 43/2/1
f 49/3/1 46/3/1 45/3/1
f 50/3/1 46/3/1 49/3/1
f 51/3/1 48/3/1 47/3/1
f 52/3/1 48/3/1 51/3/1
f 57/4/1 54/4/1 53/4/1
f 58/4/1 54/4/1 57/4/1
f 59/4/1 56/4/1 55/4/1
f 60/4/1 56/4/1 59/4/1
f 63/3/1 62/3/1 61/3/1
f 64/3/1 62/3/1 63/3/1
f 69/3/1 66/3/1 65/3/1
f 70/3/1 66/3/1 69/3/1
f 71/3/1 68/3/1 67/3/1
f 72/3/1 68/3/1 71/3/1
f 77/2/1 74/2/1 73/2/1
f 78/2/1 74/2/1 77/2/1
f 79/2/1 76/2/1 75/2/1
f 80/2/1 76/2/1 79/2/1
f 85/3/1 82/3/1 81/3/1
f 86/3/1 82/3/1 85/3/1
f 87/3/1 84/3/1 83/3/1
f 88/3/1 84/3/1 87/3/1
f 93/4/1 90/4/1 89/4/1
f 94/4/1 90/4/1 93/4/1
f 95/4/1 92/4/1 91/4/1
f 96/4/1 92/4/1 95/4/1
f 97/4/2 98/4/2 101/4/2
f 101/4/2 98/4/2 102/4/2
f 99/4/2 100/4/2 103/4/2
f 103/4/2 100/4/2 104/4/2
f 105/3/2 106/3/2 109/3/2
f 109/3/2 106/3/2 110/3/2
f 107/3/2 108/3/2 111/3/2
f 111/3/2 108/3/2 112/3/2
f 113/2/2 114/2/2 117/2/2
f 117/2/2 114/2/2 118/2/2
f 115/2/2 116/2/2 119/2/2
f 119/2/2 116/2/2 120/2/2
f 121/3/2 122/3/2 125/3/2
f 125/3/2 122/3/2 126/3/2
f 123/3/2 124/3/2 127/3/2
f 127/3/2 124/3/2 128/3/2
f 129/3/2 130/3/2 131/3/2
f 131/3/2 130/3/2 132/3/2
f 133/4/2 134/4/2 137/4/2
f 137/4/2 134/4/2 138/4/2
f 135/4/2 136/4/2 139/4/2
f 139/4/2 136/4/2 140/4/2
f 141/3/2 142/3/2 145/3/2
f 145/3/2 142/3/2 146/3/2
f 143/3/2 144/3/2 147/3/2
f 147/3/2 144/3/2 148/3/2
f 149/2/2 150/2/2 153/2/2
f 153/2/2 150/2/2 154/2/2
f 151/2/2 152/2/2 155/2/2
f 155/2/2 152/2/2 156/2/2
f 157/3/2 158/3/2 161/3/2
f 161/3/2 158/3/2 162/3/2
f 159/3/2 160/3/2 163/3/2
f 163/3/2 160/3/2 164/3/2
f 165/4/2 166/4/2 167/4/2
f 167/4/2 166/4/2 168/4/2
f 169/4/2 170/4/2 171/4/2
f 171/4/2 170/4/2 172/4/2
f 173/4/2 174/4/2 175/4/2
f 175/4/2 174/4/2 176/4/2
f 177/4/2 178/4/2 179/4/2
f 179/4/2 178/4/2 180/4/2
f 181/4/2 182/4/2 183/4/2
f 183/4/2 182/4/2 184/4/2
f 185/3/2 186/3/2 187/3/2
f 187/3/2 186/3/2 188/3/2
f 185/3/2 187/3/2 189/3/2
f 187/6/2 188/6/2 189/6/2
f 188/3/2 186/3/2 190/3/2
f 189/6/2 188/6/2 190/6/2
f 185/3/2 189/3/2 191/3/2
f 189/3/2 190/3/2 191/3/2
f 190/3/2 186/3/2 192/3/2
f 191/3/2 190/3/2 192/3/2
f 195/3/3 194/3/3 193/3/3
f 196/3/3 194/3/3 195/3/3
f 197/3/3 195/3/3 193/3/3
f 197/6/3 196/6/3 195/6/3
f 198/3/3 194/3/3 196/3/3
f 198/6/3 196/6/3 197/6/3
f 199/3/3 197/3/3 193/3/3
f 199/3/3 198/3/3 197/3/3
f 200/3/3 194/3/3 198/3/3
f 200/3/3 198/3/3 199/3/3
f 203/4/3 202/4/3 201/4/3
f 204/4/3 202/4/3 203/4/3
f 207/4/3 206/4/3 205/4/3
f 208/4/3 206/4/3 207/4/3
f 211/4/3 210/4/3 209/4/3
f 212/4/3 210/4/3 211/4/3
f 215/4/3 214/4/3 213/4/3
f 216/4/3 214/4/3 215/4/3
f 219/4/3 218/4/3 217/4/3
f 220/4/3 218/4/3 219/4/3
f 223/3/3 222/3/3 221/3/3
f 224/3/3 222/3/3 223/3/3
f 227/3/3 226/3/3 225/3/3
f 228/3/3 226/3/3 227/3/3
f 231/2/3 230/2/3 229/2/3
f 232/2/3 230/2/3 231/2/3
f 235/2/3 234/2/3 233/2/3
f 236/2/3 234/2/3 235/2/3
f 239/3/3 238/3/3 237/3/3
f 240/3/3 238/3/3 239/3/3
f 243/3/3 242/3/3 241/3/3
f 244/3/3 242/3/3 243/3/3
f 247/4/3 246/4/3 245/4/3
f 248/4/3 246/4/3 247/4/3
f 251/4/3 250/4/3 249/4/3
f 252/4/3 250/4/3 251/4/3
f 255/3/3 254/3/3 253/3/3
f 256/3/3 254/3/3 255/3/3
f 259/3/3 258/3/3 257/3/3
f 260/3/3 258/3/3 259/3/3
f 263/3/3 262/3/3 261/3/3
f 264/3/3 262/3/3 263/3/3
f 267/2/3 266/2/3 265/2/3
f 268/2/3 266/2/3 267/2/3
f 271/2/3 270/2/3 269/2/3
f 272/2/3 270/2/3 271/2/3
f 275/3/3 274/3/3 273/3/3
f 276/3/3 274/3/3 275/3/3
f 279/3/3 278/3/3 277/3/3
f 280/3/3 278/3/3 279/3/3
f 283/4/3 282/4/3 281/4/3
f 284/4/3 282/4/3 283/4/3
f 287/4/3 286/4/3 285/4/3
f 288/4/3 286/4/3 287/4/3
f 289/4/4 290/4/4 291/4/4
f 291/4/4 290/4/4 292/4/4
f 293/4/4 294/4/4 295/4/4
f 295/4/4 294/4/4 296/4/4
f 297/3/4 298/3/4 299/3/4
f 299/3/4 298/3/4 300/3/4
f 301/3/4 302/3/4 303/3/4
f 303/3/4 302/3/4 304/3/4
f 305/2/4 306/2/4 307/2/4
f 307/2/4 306/2/4 308/2/4
f 309/2/4 310/2/4 311/2/4
f 311/2/4 310/2/4 312/2/4
f 313/3/4 314/3/4 315/3/4
f 315/3/4 314/3/4 316/3/4
f 317/3/4 318/3/4 319/3/4
f 319/3/4 318/3/4 320/3/4
f 321/3/4 322/3/4 323/3/4
f 323/3/4 322/3/4 324/3/4
f 325/4/4 326/4/4 327/4/4
f 327/4/4 326/4/4 328/4/4
f 329/4/4 330/4/4 331/4/4
f 331/4/4 330/4/4 332/4/4
f 333/3/4 334/3/4 335/3/4
f 335/3/4 334/3/4 336/3/4
f 337/3/4 338/3/4 339/3/4
f 339/3/4 338/3/4 340/3/4
f 341/2/4 342/2/4 343/2/4
f 343/2/4 342/2/4 344/2/4
f 345/2/4 346/2/4 347/2/4
f 347/2/4 346/2/4 348/2/4
f 349/3/4 350/3/4 351/3/4
f 351/3/4 350/3/4 352/3/4
f 353/3/4 354/3/4 355/3/4
f 355/3/4 354/3/4 356/3/4
f 357/4/4 358/4/4 359/4/4
f 359/4/4 358/4/4 360/4/4
f 361/4/4 362/4/4 363/4/4
f 363/4/4 362/4/4 364/4/4
f 365/4/4 366/4/4 367/4/4
f 367/4/4 366/4/4 368/4/4
f 369/4/4 370/4/4 371/4/4
f 371/4/4 370/4/4 372/4/4
f 373/4/4 374/4/4 375/4/4
f 375/4/4 374/4/4 376/4/4
f 377/3/4 378/3/4 379/3/4
f 379/3/4 378/3/4 380/3/4
f 377/3/4 379/3/4 381/3/4
f 379/6/4 380/6/4 381/6/4
f 380/3/4 378/3/4 382/3/4
f 381/6/4 380/6/4 382/6/4
f 377/3/4 381/3/4 383/3/4
f 381/3/4 382/3/4 383/3/4
f 382/3/4 378/3/4 384/3/4
f 383/3/4 382/3/4 384/3/4
f 387/4/5 386/4/5 385/4/5
f 388/4/5 386/4/5 387/4/5
f 389/4/5 386/4/5 388/4/5
f 390/4/5 386/4/5 389/4/5
f 395/3/5 392/3/5 391/3/5
f 396/3/5 392/3/5 395/3/5
f 397/3/5 394/3/5 393/3/5
f 398/3/5 394/3/5 397/3/5
f 399/3/5 395/3/5 391/3/5
f 400/3/5 392/3/5 396/3/5
f 401/3/5 397/3/5 393/3/5
f 402/3/5 394/3/5 398/3/5
f 403/3/5 399/3/5 391/3/5
f 403/3/5 400/3/5 399/3/5
f 404/3/5 392/3/5 400/3/5
f 404/3/5 400/3/5 403/3/5
f 405/3/5 402/3/5 401/3/5
f 405/3/5 401/3/5 393/3/5
f 406/3/5 394/3/5 402/3/5
f 406/3/5 402/3/5 405/3/5
f 407/4/5 387/4/5 385/4/5
f 408/4/5 389/4/5 388/4/5
f 409/4/5 389/4/5 408/4/5
f 410/4/5 386/4/5 390/4/5
f 411/4/5 409/4/5 408/4/5
f 411/4/5 410/4/5 409/4/5
f 411/4/5 408/4/5 407/4/5
f 411/4/5 407/4/5 385/4/5
f 412/4/5 410/4/5 411/4/5
f 413/4/5 410/4/5 412/4/5
f 414/4/5 386/4/5 410/4/5
f 414/4/5 410/4/5 413/4/5
f 419/3/5 416/3/5 415/3/5
f 420/3/5 416/3/5 419/3/5
f 421/3/5 418/3/5 417/3/5
f 422/3/5 418/3/5 421/3/5
f 423/3/5 419/3/5 415/3/5
f 424/3/5 416/3/5 420/3/5
f 425/3/5 421/3/5 417/3/5
f 426/3/5 418/3/5 422/3/5
f 427/3/5 423/3/5 415/3/5
f 427/3/5 424/3/5 423/3/5
f 428/3/5 416/3/5 424/3/5
f 428/3/5 424/3/5 427/3/5
f 429/3/5 426/3/5 425/3/5
f 429/3/5 425/3/5 417/3/5
f 430/3/5 418/3/5 426/3/5
f 430/3/5 426/3/5 429/3/5
f 431/4/5 411/4/5 385/4/5
f 432/4/5 413/4/5 412/4/5
f 433/4/5 413/4/5 432/4/5
f 434/4/5 386/4/5 414/4/5
f 435/4/5 431/4/5 385/4/5
f 435/4/5 434/4/5 433/4/5
f 435/4/5 433/4/5 432/4/5
f 435/4/5 432/4/5 431/4/5
f 436/4/5 386/4/5 434/4/5
f 436/4/5 434/4/5 435/4/5
f 439/4/5 438/4/5 437/4/5
f 440/4/5 438/4/5 439/4/5
f 445/2/5 442/2/5 441/2/5
f 446/2/5 442/2/5 445/2/5
f 447/2/5 444/2/5 443/2/5
f 448/2/5 444/2/5 447/2/5
f 453/2/5 450/2/5 449/2/5
f 454/2/5 450/2/5 453/2/5
f 455/2/5 452/2/5 451/2/5
f 456/2/5 452/2/5 455/2/5
f 457/2/5 453/2/5 449/2/5
f 458/2/5 450/2/5 454/2/5
f 459/2/5 455/2/5 451/2/5
f 460/2/5 452/2/5 456/2/5
f 461/2/5 457/2/5 449/2/5
f 461/2/5 458/2/5 457/2/5
f 462/2/5 450/2/5 458/2/5
f 462/2/5 458/2/5 461/2/5
f 463/2/5 460/2/5 459/2/5
f 463/2/5 459/2/5 451/2/5
f 464/2/5 452/2/5 460/2/5
f 464/2/5 460/2/5 463/2/5
f 465/2/5 445/2/5 441/2/5
f 466/2/5 442/2/5 446/2/5
f 467/2/5 447/2/5 443/2/5
f 468/2/5 444/2/5 448/2/5
f 469/2/5 465/2/5 441/2/5
f 469/2/5 466/2/5 465/2/5
f 470/2/5 442/2/5 466/2/5
f 470/2/5 466/2/5 469/2/5
f 471/2/5 468/2/5 467/2/5
f 471/2/5 467/2/5 443/2/5
f 472/2/5 444/2/5 468/2/5
f 472/2/5 468/2/5 471/2/5
f 477/2/5 474/2/5 473/2/5
f 478/2/5 474/2/5 477/2/5
f 479/2/5 476/2/5 475/2/5
f 480/2/5 476/2/5 479/2/5
f 485/2/5 482/2/5 481/2/5
f 486/2/5 482/2/5 485/2/5
f 487/2/5 484/2/5 483/2/5
f 488/2/5 484/2/5 487/2/5
f 489/2/5 485/2/5 481/2/5
f 490/2/5 482/2/5 486/2/5
f 491/2/5 487/2/5 483/2/5
f 492/2/5 484/2/5 488/2/5
f 493/2/5 489/2/5 481/2/5
f 493/2/5 490/2/5 489/2/5
f 494/2/5 482/2/5 490/2/5
f 494/2/5 490/2/5 493/2/5
f 495/2/5 492/2/5 491/2/5
f 495/2/5 491/2/5 483/2/5
f 496/2/5 484/2/5 492/2/5
f 496/2/5 492/2/5 495/2/5
f 497/2/5 477/2/5 473/2/5
f 498/2/5 474/2/5 478/2/5
f 499/2/5 479/2/5 475/2/5
f 500/2/5 476/2/5 480/2/5
f 501/2/5 497/2/5 473/2/5
f 501/2/5 498/2/5 497/2/5
f 502/2/5 474/2/5 498/2/5
f 502/2/5 498/2/5 501/2/5
f 503/2/5 500/2/5 499/2/5
f 503/2/5 499/2/5 475/2/5
f 504/2/5 476/2/5 500/2/5
f 504/2/5 500/2/5 503/2/5
f 505/4/5 439/4/5 437/4/5
f 506/4/5 438/4/5 440/4/5
f 507/4/5 505/4/5 437/4/5
f 507/4/5 506/4/5 505/4/5
f 508/4/5 438/4/5 506/4/5
f 508/4/5 506/4/5 507/4/5
f 513/4/5 510/4/5 509/4/5
f 514/4/5 510/4/5 513/4/5
f 515/4/5 512/4/5 511/4/5
f 516/4/5 512/4/5 515/4/5
f 521/4/5 518/4/5 517/4/5
f 522/4/5 518/4/5 521/4/5
f 523/4/5 520/4/5 519/4/5
f 524/4/5 520/4/5 523/4/5
f 527/4/5 526/4/5 525/4/5
f 528/4/5 526/4/5 527/4/5
f 529/4/5 527/4/5 525/4/5
f 530/4/5 526/4/5 528/4/5
f 531/4/5 529/4/5 525/4/5
f 531/4/5 530/4/5 529/4/5
f 532/4/5 526/4/5 530/4/5
f 532/4/5 530/4/5 531/4/5
f 535/4/5 534/4/5 533/4/5
f 536/4/5 534/4/5 535/4/5
f 537/4/5 535/4/5 533/4/5
f 538/4/5 534/4/5 536/4/5
f 539/4/5 537/4/5 533/4/5
f 539/4/5 538/4/5 537/4/5
f 540/4/5 534/4/5 538/4/5
f 540/4/5 538/4/5 539/4/5
f 543/4/5 542/4/5 541/4/5
f 544/4/5 542/4/5 543/4/5
f 545/4/5 543/4/5 541/4/5
f 546/4/5 542/4/5 544/4/5
f 547/4/5 545/4/5 541/4/5
f 547/4/5 546/4/5 545/4/5
f 548/4/5 542/4/5 546/4/5
f 548/4/5 546/4/5 547/4/5
f 551/3/5 550/3/5 549/3/5
f 552/3/5 550/3/5 551/3/5
f 553/3/5 551/3/5 549/3/5
f 554/3/5 550/3/5 552/3/5
f 555/3/5 553/3/5 549/3/5
f 555/3/5 554/3/5 553/3/5
f 556/3/5 550/3/5 554/3/5
f 556/3/5 554/3/5 555/3/5
f 557/6/6 558/6/6 559/6/6
f 559/6/6 558/6/6 560/6/6
f 559/1/6 560/1/6 561/1/6
f 561/1/6 560/1/6 562/1/6
f 561/6/6 562/6/6 563/6/6
f 563/6/6 562/6/6 564/6/6
f 561/6/6 563/6/6 565/6/6
f 563/1/6 564/1/6 565/1/6
f 564/6/6 562/6/6 566/6/6
f 565/1/6 564/1/6 566/1/6
f 559/1/6 561/1/6 567/1/6
f 561/6/6 565/6/6 567/6/6
f 565/6/6 566/6/6 567/6/6
f 566/6/6 562/6/6 568/6/6
f 567/6/6 566/6/6 568/6/6
f 562/1/6 560/1/6 568/1/6
f 557/6/6 559/6/6 569/6/6
f 559/1/6 567/1/6 569/1/6
f 567/1/6 568/1/6 569/1/6
f 568/1/6 560/1/6 570/1/6
f 569/1/6 568/1/6 570/1/6
f 560/6/6 558/6/6 570/6/6
f 557/6/6 569/6/6 571/6/6
f 569/6/6 570/6/6 571/6/6
f 570/6/6 558/6/6 572/6/6
f 571/6/6 570/6/6 572/6/6
f 573/3/6 574/3/6 575/3/6
f 575/3/6 574/3/6 576/3/6
f 576/3/6 574/3/6 577/3/6
f 577/3/6 574/3/6 578/3/6
f 578/3/6 574/3/6 579/3/6
f 579/3/6 574/3/6 580/3/6
f 580/3/6 574/3/6 581/3/6
f 581/3/6 574/3/6 582/3/6
f 582/3/6 574/3/6 583/3/6
f 583/3/6 574/3/6 584/3/6
f 584/3/6 574/3/6 585/3/6
f 585/3/6 574/3/6 586/3/6
f 586/3/6 574/3/6 587/3/6
f 587/3/6 574/3/6 588/3/6
f 588/3/6 574/3/6 589/3/6
f 589/3/6 574/3/6 590/3/6
f 580/4/6 581/4/6 591/4/6
f 581/1/6 582/1/6 591/1/6
f 582/4/6 583/4/6 592/4/6
f 591/1/6 582/1/6 592/1/6
f 583/1/6 584/1/6 593/1/6
f 592/4/6 583/4/6 593/4/6
f 584/4/6 585/4/6 594/4/6
f 593/1/6 584/1/6 594/1/6
f 573/3/6 575/3/6 595/3/6
f 575/4/6 576/4/6 595/4/6
f 576/5/6 577/5/6 596/5/6
f 595/4/6 576/4/6 596/4/6
f 593/4/6 594/4/6 597/4/6
f 579/3/6 580/3/6 597/3/6
f 580/4/6 591/4/6 597/4/6
f 591/4/6 592/4/6 597/4/6
f 592/4/6 593/4/6 597/4/6
f 594/4/6 585/4/6 598/4/6
f 597/4/6 594/4/6 598/4/6
f 585/3/6 586/3/6 598/3/6
f 589/4/6 590/4/6 599/4/6
f 588/5/6 589/5/6 599/5/6
f 590/3/6 574/3/6 600/3/6
f 599/4/6 590/4/6 600/4/6
f 573/3/6 595/3/6 601/3/6
f 595/5/6 596/5/6 601/5/6
f 596/5/6 577/5/6 602/5/6
f 601/5/6 596/5/6 602/5/6
f 577/1/6 578/1/6 602/1/6
f 599/5/6 600/5/6 603/5/6
f 588/5/6 599/5/6 603/5/6
f 587/1/6 588/1/6 603/1/6
f 600/3/6 574/3/6 604/3/6
f 603/5/6 600/5/6 604/5/6
f 573/3/6 601/3/6 605/3/6
f 601/1/6 602/1/6 605/1/6
f 578/5/6 579/5/6 606/5/6
f 605/1/6 602/1/6 606/1/6
f 602/1/6 578/1/6 606/1/6
f 606/5/6 579/5/6 607/5/6
f 579/3/6 597/3/6 608/3/6
f 607/5/6 579/5/6 608/5/6
f 597/3/6 598/3/6 608/3/6
f 586/5/6 587/5/6 609/5/6
f 608/3/6 598/3/6 609/3/6
f 598/3/6 586/3/6 609/3/6
f 609/5/6 587/5/6 610/5/6
f 587/1/6 603/1/6 611/1/6
f 610/5/6 587/5/6 611/5/6
f 603/1/6 604/1/6 611/1/6
f 604/3/6 574/3/6 612/3/6
f 611/1/6 604/1/6 612/1/6
f 606/5/6 607/5/6 613/5/6
f 605/5/6 606/5/6 613/5/6
f 609/3/6 610/3/6 614/3/6
f 613/5/6 607/5/6 614/5/6
f 607/3/6 608/3/6 614/3/6
f 608/3/6 609/3/6 614/3/6
f 610/5/6 611/5/6 615/5/6
f 614/3/6 610/3/6 615/3/6
f 611/5/6 612/5/6 615/5/6
f 615/5/6 612/5/6 616/5/6
f 605/5/6 613/5/6 617/5/6
f 573/3/6 605/3/6 617/3/6
f 613/3/6 614/3/6 618/3/6
f 617/5/6 613/5/6 618/5/6
f 615/3/6 616/3/6 618/3/6
f 614/3/6 615/3/6 618/3/6
f 618/3/6 616/3/6 619/3/6
f 619/3/6 616/3/6 620/3/6
f 616/5/6 612/5/6 621/5/6
f 620/3/6 616/3/6 621/3/6
f 612/3/6 574/3/6 622/3/6
f 621/5/6 612/5/6 622/5/6
f 573/3/6 617/3/6 623/3/6
f 617/3/6 618/3/6 623/3/6
f 618/3/6 619/3/6 623/3/6
f 623/3/6 619/3/6 624/3/6
f 620/3/6 621/3/6 625/3/6
f 621/3/6 622/3/6 625/3/6
f 622/3/6 574/3/6 626/3/6
f 625/3/6 622/3/6 626/3/6
f 623/4/6 624/4/6 627/4/6
f 573/3/6 623/3/6 627/3/6
f 627/4/6 624/4/6 628/4/6
f 625/4/6 626/4/6 629/4/6
f 626/3/6 574/3/6 630/3/6
f 629/4/6 626/4/6 630/4/6
f 573/3/6 627/3/6 631/3/6
f 627/1/6 628/1/6 631/1/6
f 628/4/6 624/4/6 632/4/6
f 631/1/6 628/1/6 632/1/6
f 625/4/6 629/4/6 633/4/6
f 629/1/6 630/1/6 633/1/6
f 630/3/6 574/3/6 634/3/6
f 633/1/6 630/1/6 634/1/6
f 573/3/6 631/3/6 635/3/6
f 631/4/6 632/4/6 635/4/6
f 632/4/6 624/4/6 636/4/6
f 635/4/6 632/4/6 636/4/6
f 625/4/6 633/4/6 637/4/6
f 633/4/6 634/4/6 637/4/6
f 634/3/6 574/3/6 638/3/6
f 637/4/6 634/4/6 638/4/6
f 573/3/6 635/3/6 639/3/6
f 635/1/6 636/1/6 639/1/6
f 636/4/6 624/4/6 640/4/6
f 639/1/6 636/1/6 640/1/6
f 625/4/6 637/4/6 641/4/6
f 637/1/6 638/1/6 641/1/6
f 638/3/6 574/3/6 642/3/6
f 641/1/6 638/1/6 642/1/6
f 573/3/6 639/3/6 643/3/6
f 639/4/6 640/4/6 643/4/6
f 624/3/6 619/3/6 644/3/6
f 643/4/6 640/4/6 644/4/6
f 640/4/6 624/4/6 644/4/6
f 620/3/6 625/3/6 645/3/6
f 625/4/6 641/4/6 645/4/6
f 641/4/6 642/4/6 645/4/6
f 642/3/6 574/3/6 646/3/6
f 645/4/6 642/4/6 646/4/6
f 573/3/6 643/3/6 647/3/6
f 643/3/6 644/3/6 647/3/6
f 644/3/6 619/3/6 648/3/6
f 647/3/6 644/3/6 648/3/6
f 648/3/6 619/3/6 649/3/6
f 645/3/6 646/3/6 650/3/6
f 620/3/6 645/3/6 650/3/6
f 650/3/6 646/3/6 651/3/6
f 646/3/6 574/3/6 652/3/6
f 651/3/6 646/3/6 652/3/6
f 650/3/6 651/3/6 653/3/6
f 648/3/6 649/3/6 653/3/6
f 647/5/6 648/5/6 653/5/6
f 649/3/6 650/3/6 653/3/6
f 653/3/6 651/3/6 654/3/6
f 654/3/6 651/3/6 655/3/6
f 651/5/6 652/5/6 656/5/6
f 655/3/6 651/3/6 656/3/6
f 573/3/6 647/3/6 657/3/6
f 647/5/6 653/5/6 657/5/6
f 653/5/6 654/5/6 657/5/6
f 657/5/6 654/5/6 658/5/6
f 654/3/6 655/3/6 659/3/6
f 658/5/6 654/5/6 659/5/6
f 659/3/6 655/3/6 660/3/6
f 660/3/6 655/3/6 661/3/6
f 655/5/6 656/5/6 662/5/6
f 661/3/6 655/3/6 662/3/6
f 656/5/6 652/5/6 663/5/6
f 662/5/6 656/5/6 663/5/6
f 652/3/6 574/3/6 664/3/6
f 663/5/6 652/5/6 664/5/6
f 657/1/6 658/1/6 665/1/6
f 573/3/6 657/3/6 665/3/6
f 665/1/6 658/1/6 666/1/6
f 663/1/6 664/1/6 667/1/6
f 664/3/6 574/3/6 668/3/6
f 667/1/6 664/1/6 668/1/6
f 573/3/6 665/3/6 669/3/6
f 665/5/6 666/5/6 669/5/6
f 669/5/6 666/5/6 670/5/6
f 660/3/6 661/3/6 671/3/6
f 671/3/6 661/3/6 672/3/6
f 667/5/6 668/5/6 673/5/6
f 668/3/6 574/3/6 674/3/6
f 673/5/6 668/5/6 674/5/6
f 671/4/6 672/4/6 675/4/6
f 675/4/6 672/4/6 676/4/6
f 676/4/6 672/4/6 677/4/6
f 677/4/6 672/4/6 678/4/6
f 573/3/6 669/3/6 679/3/6
f 669/4/6 670/4/6 679/4/6
f 670/5/6 666/5/6 680/5/6
f 679/4/6 670/4/6 680/4/6
f 666/1/6 658/1/6 681/1/6
f 680/5/6 666/5/6 681/5/6
f 658/5/6 659/5/6 682/5/6
f 681/1/6 658/1/6 682/1/6
f 659/5/6 660/5/6 682/5/6
f 660/3/6 671/3/6 683/3/6
f 682/5/6 660/5/6 683/5/6
f 671/4/6 675/4/6 684/4/6
f 683/3/6 671/3/6 684/3/6
f 675/1/6 676/1/6 685/1/6
f 684/4/6 675/4/6 685/4/6
f 676/4/6 677/4/6 686/4/6
f 685/1/6 676/1/6 686/1/6
f 677/1/6 678/1/6 687/1/6
f 686/4/6 677/4/6 687/4/6
f 678/4/6 672/4/6 688/4/6
f 687/1/6 678/1/6 688/1/6
f 672/3/6 661/3/6 689/3/6
f 688/4/6 672/4/6 689/4/6
f 662/5/6 663/5/6 690/5/6
f 689/3/6 661/3/6 690/3/6
f 661/5/6 662/5/6 690/5/6
f 663/1/6 667/1/6 691/1/6
f 690/5/6 663/5/6 691/5/6
f 667/5/6 673/5/6 692/5/6
f 691/1/6 667/1/6 692/1/6
f 673/4/6 674/4/6 693/4/6
f 692/5/6 673/5/6 693/5/6
f 674/3/6 574/3/6 694/3/6
f 693/4/6 674/4/6 694/4/6
f 688/3/6 689/3/6 695/3/6
f 683/3/6 684/3/6 695/3/6
f 693/3/6 694/3/6 695/3/6
f 682/3/6 683/3/6 695/3/6
f 691/3/6 692/3/6 695/3/6
f 692/3/6 693/3/6 695/3/6
f 681/3/6 682/3/6 695/3/6
f 685/3/6 686/3/6 695/3/6
f 686/3/6 687/3/6 695/3/6
f 687/3/6 688/3/6 695/3/6
f 690/3/6 691/3/6 695/3/6
f 684/3/6 685/3/6 695/3/6
f 680/3/6 681/3/6 695/3/6
f 679/3/6 680/3/6 695/3/6
f 573/3/6 679/3/6 695/3/6
f 689/3/6 690/3/6 695/3/6
f 694/3/6 574/3/6 696/3/6
f 695/3/6 694/3/6 696/3/6
